<svg xmlns="http://www.w3.org/2000/svg" viewBox="0 0 512 512">
    <!-- Background Circle -->
    <circle cx="256" cy="256" r="256" fill="#8B4513"/>
    
    <!-- Chef's Hat -->
    <path d="M256 96c-42.4 0-77.12 17.44-96.64 46.72l-14.24-14.24c-7.84-7.84-20.48-7.84-28.32 0-7.84 7.84-7.84 20.48 0 28.32l14.24 14.24C112.64 192 96 226.72 96 269.12c0 14.24 11.52 25.76 25.76 25.76h268.48c14.24 0 25.76-11.52 25.76-25.76 0-42.4-16.64-77.12-34.24-98.08l14.24-14.24c7.84-7.84 7.84-20.48 0-28.32-7.84-7.84-20.48-7.84-28.32 0l-14.24 14.24C333.12 113.44 298.4 96 256 96z" fill="white"/>
    
    <!-- Rolling Pin -->
    <path d="M384 320H128c-17.92 0-32 14.08-32 32v32c0 17.92 14.08 32 32 32h256c17.92 0 32-14.08 32-32v-32c0-17.92-14.08-32-32-32z" fill="white"/>
    <path d="M368 288H144c-8.96 0-16 7.04-16 16s7.04 16 16 16h224c8.96 0 16-7.04 16-16s-7.04-16-16-16z" fill="white"/>
    <path d="M368 384H144c-8.96 0-16 7.04-16 16s7.04 16 16 16h224c8.96 0 16-7.04 16-16s-7.04-16-16-16z" fill="white"/>
</svg> 